<mxfile host="app.diagrams.net" agent="Mozilla/5.0 (Windows NT 10.0; Win64; x64) AppleWebKit/537.36 (KHTML, like Gecko) Chrome/138.0.0.0 Safari/537.36" version="27.2.0">
  <diagram name="Page-1" id="lUBaEKhqv1dzMmHpV5KS">
    <mxGraphModel dx="2559" dy="663" grid="1" gridSize="10" guides="1" tooltips="1" connect="1" arrows="1" fold="1" page="1" pageScale="1" pageWidth="850" pageHeight="1100" math="0" shadow="0">
      <root>
        <mxCell id="0" />
        <mxCell id="1" parent="0" />
        <mxCell id="ZMNSQUCy0xY2XGHV73Q1-14" style="edgeStyle=orthogonalEdgeStyle;rounded=0;orthogonalLoop=1;jettySize=auto;html=1;entryX=0.5;entryY=0;entryDx=0;entryDy=0;" edge="1" parent="1" source="ZMNSQUCy0xY2XGHV73Q1-1" target="ZMNSQUCy0xY2XGHV73Q1-2">
          <mxGeometry relative="1" as="geometry" />
        </mxCell>
        <mxCell id="ZMNSQUCy0xY2XGHV73Q1-1" value="&lt;font style=&quot;font-size: 18px;&quot;&gt;1&lt;/font&gt;" style="ellipse;whiteSpace=wrap;html=1;aspect=fixed;" vertex="1" parent="1">
          <mxGeometry x="360" y="40" width="80" height="80" as="geometry" />
        </mxCell>
        <mxCell id="ZMNSQUCy0xY2XGHV73Q1-15" style="rounded=0;orthogonalLoop=1;jettySize=auto;html=1;entryX=0.5;entryY=0;entryDx=0;entryDy=0;" edge="1" parent="1" source="ZMNSQUCy0xY2XGHV73Q1-2" target="ZMNSQUCy0xY2XGHV73Q1-3">
          <mxGeometry relative="1" as="geometry" />
        </mxCell>
        <mxCell id="ZMNSQUCy0xY2XGHV73Q1-2" value="&lt;font style=&quot;font-size: 18px;&quot;&gt;2&lt;/font&gt;" style="ellipse;whiteSpace=wrap;html=1;aspect=fixed;" vertex="1" parent="1">
          <mxGeometry x="360" y="160" width="80" height="80" as="geometry" />
        </mxCell>
        <mxCell id="ZMNSQUCy0xY2XGHV73Q1-16" style="edgeStyle=orthogonalEdgeStyle;rounded=0;orthogonalLoop=1;jettySize=auto;html=1;entryX=0.5;entryY=0;entryDx=0;entryDy=0;" edge="1" parent="1" source="ZMNSQUCy0xY2XGHV73Q1-3" target="ZMNSQUCy0xY2XGHV73Q1-5">
          <mxGeometry relative="1" as="geometry" />
        </mxCell>
        <mxCell id="ZMNSQUCy0xY2XGHV73Q1-3" value="&lt;font style=&quot;font-size: 18px;&quot;&gt;3&lt;/font&gt;" style="ellipse;whiteSpace=wrap;html=1;aspect=fixed;" vertex="1" parent="1">
          <mxGeometry x="360" y="280" width="80" height="80" as="geometry" />
        </mxCell>
        <mxCell id="ZMNSQUCy0xY2XGHV73Q1-30" style="rounded=0;orthogonalLoop=1;jettySize=auto;html=1;entryX=0.5;entryY=0;entryDx=0;entryDy=0;" edge="1" parent="1" source="ZMNSQUCy0xY2XGHV73Q1-5" target="ZMNSQUCy0xY2XGHV73Q1-29">
          <mxGeometry relative="1" as="geometry" />
        </mxCell>
        <mxCell id="ZMNSQUCy0xY2XGHV73Q1-5" value="&lt;font style=&quot;font-size: 18px;&quot;&gt;4&lt;/font&gt;" style="ellipse;whiteSpace=wrap;html=1;aspect=fixed;" vertex="1" parent="1">
          <mxGeometry x="360" y="400" width="80" height="80" as="geometry" />
        </mxCell>
        <mxCell id="ZMNSQUCy0xY2XGHV73Q1-18" style="edgeStyle=orthogonalEdgeStyle;rounded=0;orthogonalLoop=1;jettySize=auto;html=1;entryX=0.5;entryY=0;entryDx=0;entryDy=0;" edge="1" parent="1" source="ZMNSQUCy0xY2XGHV73Q1-6" target="ZMNSQUCy0xY2XGHV73Q1-7">
          <mxGeometry relative="1" as="geometry" />
        </mxCell>
        <mxCell id="ZMNSQUCy0xY2XGHV73Q1-6" value="&lt;font style=&quot;font-size: 18px;&quot;&gt;5&lt;/font&gt;" style="ellipse;whiteSpace=wrap;html=1;aspect=fixed;" vertex="1" parent="1">
          <mxGeometry x="200" y="520" width="80" height="80" as="geometry" />
        </mxCell>
        <mxCell id="ZMNSQUCy0xY2XGHV73Q1-7" value="&lt;font style=&quot;font-size: 18px;&quot;&gt;6&lt;/font&gt;" style="ellipse;whiteSpace=wrap;html=1;aspect=fixed;" vertex="1" parent="1">
          <mxGeometry x="200" y="640" width="80" height="80" as="geometry" />
        </mxCell>
        <mxCell id="ZMNSQUCy0xY2XGHV73Q1-20" style="edgeStyle=orthogonalEdgeStyle;rounded=0;orthogonalLoop=1;jettySize=auto;html=1;entryX=0.5;entryY=0;entryDx=0;entryDy=0;" edge="1" parent="1" source="ZMNSQUCy0xY2XGHV73Q1-8" target="ZMNSQUCy0xY2XGHV73Q1-9">
          <mxGeometry relative="1" as="geometry" />
        </mxCell>
        <mxCell id="ZMNSQUCy0xY2XGHV73Q1-8" value="&lt;font style=&quot;font-size: 18px;&quot;&gt;7&lt;/font&gt;" style="ellipse;whiteSpace=wrap;html=1;aspect=fixed;" vertex="1" parent="1">
          <mxGeometry x="40" y="760" width="80" height="80" as="geometry" />
        </mxCell>
        <mxCell id="ZMNSQUCy0xY2XGHV73Q1-9" value="&lt;font style=&quot;font-size: 18px;&quot;&gt;8&lt;/font&gt;" style="ellipse;whiteSpace=wrap;html=1;aspect=fixed;" vertex="1" parent="1">
          <mxGeometry x="40" y="880" width="80" height="80" as="geometry" />
        </mxCell>
        <mxCell id="ZMNSQUCy0xY2XGHV73Q1-36" style="edgeStyle=orthogonalEdgeStyle;rounded=0;orthogonalLoop=1;jettySize=auto;html=1;entryX=0;entryY=0.5;entryDx=0;entryDy=0;" edge="1" parent="1" source="ZMNSQUCy0xY2XGHV73Q1-10" target="ZMNSQUCy0xY2XGHV73Q1-32">
          <mxGeometry relative="1" as="geometry">
            <Array as="points">
              <mxPoint x="-80" y="1400" />
            </Array>
          </mxGeometry>
        </mxCell>
        <mxCell id="ZMNSQUCy0xY2XGHV73Q1-10" value="&lt;font style=&quot;font-size: 18px;&quot;&gt;9&lt;/font&gt;" style="ellipse;whiteSpace=wrap;html=1;aspect=fixed;" vertex="1" parent="1">
          <mxGeometry x="-120" y="1000" width="80" height="80" as="geometry" />
        </mxCell>
        <mxCell id="ZMNSQUCy0xY2XGHV73Q1-23" style="rounded=0;orthogonalLoop=1;jettySize=auto;html=1;entryX=0.5;entryY=0;entryDx=0;entryDy=0;" edge="1" parent="1" source="ZMNSQUCy0xY2XGHV73Q1-11" target="ZMNSQUCy0xY2XGHV73Q1-12">
          <mxGeometry relative="1" as="geometry" />
        </mxCell>
        <mxCell id="ZMNSQUCy0xY2XGHV73Q1-24" style="rounded=0;orthogonalLoop=1;jettySize=auto;html=1;entryX=0.5;entryY=0;entryDx=0;entryDy=0;" edge="1" parent="1" source="ZMNSQUCy0xY2XGHV73Q1-11" target="ZMNSQUCy0xY2XGHV73Q1-13">
          <mxGeometry relative="1" as="geometry" />
        </mxCell>
        <mxCell id="ZMNSQUCy0xY2XGHV73Q1-11" value="&lt;font style=&quot;font-size: 18px;&quot;&gt;10&lt;/font&gt;" style="ellipse;whiteSpace=wrap;html=1;aspect=fixed;" vertex="1" parent="1">
          <mxGeometry x="200" y="1000" width="80" height="80" as="geometry" />
        </mxCell>
        <mxCell id="ZMNSQUCy0xY2XGHV73Q1-35" style="rounded=0;orthogonalLoop=1;jettySize=auto;html=1;entryX=0;entryY=0;entryDx=0;entryDy=0;" edge="1" parent="1" source="ZMNSQUCy0xY2XGHV73Q1-12" target="ZMNSQUCy0xY2XGHV73Q1-32">
          <mxGeometry relative="1" as="geometry" />
        </mxCell>
        <mxCell id="ZMNSQUCy0xY2XGHV73Q1-12" value="&lt;font style=&quot;font-size: 18px;&quot;&gt;11&lt;/font&gt;" style="ellipse;whiteSpace=wrap;html=1;aspect=fixed;" vertex="1" parent="1">
          <mxGeometry x="40" y="1120" width="80" height="80" as="geometry" />
        </mxCell>
        <mxCell id="ZMNSQUCy0xY2XGHV73Q1-34" style="edgeStyle=orthogonalEdgeStyle;rounded=0;orthogonalLoop=1;jettySize=auto;html=1;entryX=0.5;entryY=0;entryDx=0;entryDy=0;" edge="1" parent="1" source="ZMNSQUCy0xY2XGHV73Q1-13" target="ZMNSQUCy0xY2XGHV73Q1-32">
          <mxGeometry relative="1" as="geometry" />
        </mxCell>
        <mxCell id="ZMNSQUCy0xY2XGHV73Q1-13" value="&lt;font style=&quot;font-size: 18px;&quot;&gt;12&lt;/font&gt;" style="ellipse;whiteSpace=wrap;html=1;aspect=fixed;" vertex="1" parent="1">
          <mxGeometry x="360" y="1120" width="80" height="80" as="geometry" />
        </mxCell>
        <mxCell id="ZMNSQUCy0xY2XGHV73Q1-17" value="" style="endArrow=classic;html=1;rounded=0;entryX=0.5;entryY=0;entryDx=0;entryDy=0;" edge="1" parent="1" source="ZMNSQUCy0xY2XGHV73Q1-5" target="ZMNSQUCy0xY2XGHV73Q1-6">
          <mxGeometry width="50" height="50" relative="1" as="geometry">
            <mxPoint x="220" y="390" as="sourcePoint" />
            <mxPoint x="270" y="340" as="targetPoint" />
          </mxGeometry>
        </mxCell>
        <mxCell id="ZMNSQUCy0xY2XGHV73Q1-19" value="" style="endArrow=classic;html=1;rounded=0;entryX=0.5;entryY=0;entryDx=0;entryDy=0;exitX=0;exitY=1;exitDx=0;exitDy=0;" edge="1" parent="1" source="ZMNSQUCy0xY2XGHV73Q1-7" target="ZMNSQUCy0xY2XGHV73Q1-8">
          <mxGeometry width="50" height="50" relative="1" as="geometry">
            <mxPoint x="200" y="700" as="sourcePoint" />
            <mxPoint x="90" y="760" as="targetPoint" />
          </mxGeometry>
        </mxCell>
        <mxCell id="ZMNSQUCy0xY2XGHV73Q1-21" value="" style="endArrow=classic;html=1;rounded=0;entryX=0.5;entryY=0;entryDx=0;entryDy=0;" edge="1" parent="1" source="ZMNSQUCy0xY2XGHV73Q1-9" target="ZMNSQUCy0xY2XGHV73Q1-10">
          <mxGeometry width="50" height="50" relative="1" as="geometry">
            <mxPoint x="202" y="1000" as="sourcePoint" />
            <mxPoint x="70" y="1052" as="targetPoint" />
          </mxGeometry>
        </mxCell>
        <mxCell id="ZMNSQUCy0xY2XGHV73Q1-22" value="" style="endArrow=classic;html=1;rounded=0;entryX=0.5;entryY=0;entryDx=0;entryDy=0;" edge="1" parent="1" source="ZMNSQUCy0xY2XGHV73Q1-9" target="ZMNSQUCy0xY2XGHV73Q1-11">
          <mxGeometry width="50" height="50" relative="1" as="geometry">
            <mxPoint x="252" y="1020" as="sourcePoint" />
            <mxPoint x="120" y="1072" as="targetPoint" />
          </mxGeometry>
        </mxCell>
        <mxCell id="ZMNSQUCy0xY2XGHV73Q1-26" style="rounded=0;orthogonalLoop=1;jettySize=auto;html=1;entryX=0.5;entryY=0;entryDx=0;entryDy=0;exitX=1;exitY=1;exitDx=0;exitDy=0;" edge="1" parent="1" source="ZMNSQUCy0xY2XGHV73Q1-7" target="ZMNSQUCy0xY2XGHV73Q1-28">
          <mxGeometry relative="1" as="geometry" />
        </mxCell>
        <mxCell id="ZMNSQUCy0xY2XGHV73Q1-38" style="edgeStyle=orthogonalEdgeStyle;rounded=0;orthogonalLoop=1;jettySize=auto;html=1;entryX=1;entryY=0;entryDx=0;entryDy=0;" edge="1" parent="1" source="ZMNSQUCy0xY2XGHV73Q1-28" target="ZMNSQUCy0xY2XGHV73Q1-32">
          <mxGeometry relative="1" as="geometry">
            <Array as="points">
              <mxPoint x="580" y="800" />
              <mxPoint x="580" y="1372" />
            </Array>
          </mxGeometry>
        </mxCell>
        <mxCell id="ZMNSQUCy0xY2XGHV73Q1-28" value="&lt;font style=&quot;font-size: 18px;&quot;&gt;13&lt;/font&gt;" style="ellipse;whiteSpace=wrap;html=1;aspect=fixed;" vertex="1" parent="1">
          <mxGeometry x="360" y="760" width="80" height="80" as="geometry" />
        </mxCell>
        <mxCell id="ZMNSQUCy0xY2XGHV73Q1-37" style="edgeStyle=orthogonalEdgeStyle;rounded=0;orthogonalLoop=1;jettySize=auto;html=1;entryX=1;entryY=0.5;entryDx=0;entryDy=0;" edge="1" parent="1" source="ZMNSQUCy0xY2XGHV73Q1-29" target="ZMNSQUCy0xY2XGHV73Q1-32">
          <mxGeometry relative="1" as="geometry">
            <Array as="points">
              <mxPoint x="720" y="560" />
              <mxPoint x="720" y="1400" />
            </Array>
          </mxGeometry>
        </mxCell>
        <mxCell id="ZMNSQUCy0xY2XGHV73Q1-29" value="&lt;font style=&quot;font-size: 18px;&quot;&gt;14&lt;/font&gt;" style="ellipse;whiteSpace=wrap;html=1;aspect=fixed;" vertex="1" parent="1">
          <mxGeometry x="520" y="520" width="80" height="80" as="geometry" />
        </mxCell>
        <mxCell id="ZMNSQUCy0xY2XGHV73Q1-32" value="&lt;font style=&quot;font-size: 18px;&quot;&gt;end&lt;/font&gt;" style="ellipse;whiteSpace=wrap;html=1;aspect=fixed;" vertex="1" parent="1">
          <mxGeometry x="360" y="1360" width="80" height="80" as="geometry" />
        </mxCell>
      </root>
    </mxGraphModel>
  </diagram>
</mxfile>
